<svg width="48" height="48" viewBox="0 0 48 48" fill="none" xmlns="http://www.w3.org/2000/svg">
<path d="M37.3333 24.0492V14.5808L34.3225 10.0642C33.9117 9.44751 33.075 9 32.3333 9H9C8.25833 9 7.42167 9.44751 7.01084 10.0642L4 14.5808V29.8333V34.8333C4 37.1308 5.86917 39 8.16667 39H27.3333V37.3333H8.16667C6.78833 37.3333 5.66667 36.2117 5.66667 34.8333V29.8333V15.6667H14V19.8333C14 21.2117 15.1217 22.3333 16.5 22.3333H24.8333C26.2117 22.3333 27.3333 21.2117 27.3333 19.8333V15.6667H35.6667V24.0492C31.9225 24.465 29 27.6458 29 31.5C29 35.6358 32.365 39 36.5 39C40.635 39 44 35.6358 44 31.5C44 27.6458 41.0775 24.465 37.3333 24.0492ZM32.9358 10.9892L34.9433 14H27.0158L25.3492 10.6667H32.3333C32.5142 10.6667 32.835 10.8383 32.9358 10.9892ZM25.1517 14H16.1817L17.8483 10.6667H23.485L25.1517 14ZM8.39751 10.9892C8.49834 10.8383 8.81833 10.6667 9 10.6667H15.985L14.3183 14H6.39084L8.39751 10.9892ZM25.6667 19.8333C25.6667 20.2933 25.2925 20.6667 24.8333 20.6667H16.5C16.0408 20.6667 15.6667 20.2933 15.6667 19.8333V15.6667H25.6667V19.8333ZM36.5 37.3333C33.2833 37.3333 30.6667 34.7158 30.6667 31.5C30.6667 28.2842 33.2833 25.6667 36.5 25.6667C39.7167 25.6667 42.3333 28.2842 42.3333 31.5C42.3333 34.7158 39.7167 37.3333 36.5 37.3333Z" fill="#0955A3"/>
<path d="M14 25.6666H9V27.3333H14V25.6666Z" fill="#0955A3"/>
<path d="M15.6667 29H9V30.6667H15.6667V29Z" fill="#0955A3"/>
<path d="M17.3333 32.3334H9V34H17.3333V32.3334Z" fill="#0955A3"/>
<path d="M33.1666 29.8334H39.8333L36.5 34.8334L33.1666 29.8334Z" fill="#F96302"/>
</svg>
