<svg width="49" height="48" viewBox="0 0 49 48" fill="none" xmlns="http://www.w3.org/2000/svg">
<path d="M23.6509 25.9064C25.7651 25.9064 27.4791 24.1925 27.4791 22.0783C27.4791 19.964 25.7651 18.2501 23.6509 18.2501C21.5367 18.2501 19.8228 19.964 19.8228 22.0783C19.8228 24.1925 21.5367 25.9064 23.6509 25.9064Z" fill="#F96302"/>
<path d="M9.03126 22.0782C9.03126 14.0567 15.6302 7.53126 23.6517 7.53126C31.4145 7.53126 37.7577 13.6479 38.1596 21.3126H35.4279L38.9635 28.384L42.5 21.3126H39.6909C39.2851 12.8042 32.2222 6 23.615 6C14.7497 6 7.5 13.213 7.5 22.0782C7.5 30.9435 15.0828 38.1565 23.5047 38.1565V36.6252C15.8484 36.6252 9.03126 30.0997 9.03126 22.0782Z" fill="#0955A3"/>
<path d="M33.6041 22.0776H32.0728C32.0728 26.7212 28.2585 30.4995 23.6142 30.4995C18.9699 30.4995 15.1555 26.7212 15.1555 22.0776C15.1555 17.6951 18.5005 14.0875 22.7383 13.6947V15.6601L28.2784 12.8901L22.7391 10.12V12.1642C17.7226 12.5654 13.625 16.8537 13.625 22.0776C13.625 27.5656 18.1637 32.0308 23.6517 32.0308C29.1397 32.0308 33.6041 27.5656 33.6041 22.0776Z" fill="#0955A3"/>
<path d="M35.1353 33.5626C32.6018 33.5626 30.5415 35.6229 30.5415 38.1564C30.5415 40.6899 32.6018 42.7502 35.1353 42.7502C37.6688 42.7502 39.7291 40.6899 39.7291 38.1564C39.7291 35.6229 37.6688 33.5626 35.1353 33.5626ZM35.1353 41.2189C33.4463 41.2189 32.0728 39.8454 32.0728 38.1564C32.0728 36.4674 33.4463 35.0939 35.1353 35.0939C36.8243 35.0939 38.1978 36.4674 38.1978 38.1564C38.1978 39.8454 36.8243 41.2189 35.1353 41.2189Z" fill="#0955A3"/>
<path d="M35.1353 39.6878C35.981 39.6878 36.6665 39.0022 36.6665 38.1565C36.6665 37.3108 35.981 36.6252 35.1353 36.6252C34.2896 36.6252 33.604 37.3108 33.604 38.1565C33.604 39.0022 34.2896 39.6878 35.1353 39.6878Z" fill="#0955A3"/>
</svg>
