<svg width="48" height="48" viewBox="0 0 48 48" fill="none" xmlns="http://www.w3.org/2000/svg">
<path d="M42.8429 35.1865L35.4184 26.326L32.1966 29.0337L28.7106 24.851C31.1757 22.8525 33.0599 20.1091 33.9692 16.8948C34.0117 16.7456 34.0117 16.5897 33.9692 16.4406C32.0649 9.70523 25.9096 5 19.0009 5C12.0923 5 5.93697 9.70523 4.03188 16.4406C3.98937 16.5897 3.98937 16.7456 4.03188 16.8948C5.93697 23.6293 12.0923 28.3345 19.0009 28.3345C22.0327 28.3345 24.9195 27.4269 27.3655 25.841L30.9198 30.1062L27.8272 32.7047L35.25 41.5626C36.1943 42.6893 37.5785 43.3352 39.0486 43.3352C40.2112 43.3352 41.3412 42.9227 42.232 42.1735C44.3255 40.4159 44.5989 37.2807 42.8429 35.1865ZM5.70193 16.6672C7.47702 10.7669 12.9123 6.66675 19.0009 6.66675C25.0896 6.66675 30.5248 10.7669 32.2999 16.6672C30.5248 22.5675 25.0896 26.6677 19.0009 26.6677C12.9123 26.6677 7.47702 22.5675 5.70193 16.6672ZM35.2134 28.6762L37.6935 31.6355L32.6524 35.8657L30.1748 32.9097L35.2134 28.6762ZM41.1604 40.8976C40.5695 41.3951 39.8195 41.6685 39.0494 41.6685C38.0744 41.6685 37.156 41.2393 36.5293 40.4918L33.7233 37.1432L38.7644 32.913L41.567 36.2574C42.7321 37.6483 42.5504 39.73 41.1604 40.8976Z" fill="#0955A3"/>
<path d="M24.0012 16.6672C24.0012 19.4257 21.7594 21.6675 19.001 21.6675C16.2425 21.6675 14.0007 19.4257 14.0007 16.6672C14.0007 13.9088 16.2425 11.667 19.001 11.667C19.151 11.667 19.2927 11.6753 19.4343 11.692C19.1593 12.1753 19.001 12.742 19.001 13.3337C19.001 15.1755 20.4927 16.6672 22.3345 16.6672C22.9262 16.6672 23.4928 16.5089 23.9762 16.2339C23.9929 16.3756 24.0012 16.5172 24.0012 16.6672Z" fill="#F96302"/>
</svg>
