<svg width="49" height="48" viewBox="0 0 49 48" fill="none" xmlns="http://www.w3.org/2000/svg">
<path d="M25 11.1666C18.1997 11.1666 12.6666 16.6997 12.6666 23.5C12.6666 30.3003 18.1997 35.8333 25 35.8333C31.8003 35.8333 37.3333 30.3003 37.3333 23.5C37.3333 16.6997 31.8003 11.1666 25 11.1666ZM35.7523 24.2708C35.582 26.6665 34.6307 28.8449 33.1461 30.5562L31.5405 28.9505L30.4505 30.0405L32.0562 31.6461C30.3449 33.1307 28.1658 34.082 25.7708 34.2523V31.9791H24.2291V34.2523C21.8334 34.082 19.655 33.1307 17.9438 31.6461L19.5494 30.0405L18.4594 28.9505L16.8538 30.5562C15.3692 28.8449 14.418 26.6658 14.2476 24.2708H16.5208V22.7291H14.2476C14.418 20.3334 15.3692 18.155 16.8538 16.4437L19.0044 18.5944L20.0944 17.5044L17.9438 15.3538C19.655 13.8692 21.8341 12.918 24.2291 12.7476V15.7916H25.7708V12.7476C28.1665 12.918 30.3449 13.8692 32.0562 15.3538L30.4505 16.9594L31.5405 18.0494L33.1461 16.4437C34.6307 18.155 35.582 20.3341 35.7523 22.7291H33.4791V24.2708H35.7523Z" fill="#0955A3"/>
<path d="M41.9583 21.1875H41.7965C40.7682 13.6842 34.8158 7.73184 27.3125 6.70355V6.54167C27.3125 5.69144 26.6211 5 25.7708 5H24.2292C23.3789 5 22.6875 5.69144 22.6875 6.54167V6.70355C15.1842 7.73184 9.23184 13.6842 8.20355 21.1875H8.04167C7.19144 21.1875 6.5 21.8789 6.5 22.7292V24.2708C6.5 25.1211 7.19144 25.8125 8.04167 25.8125H8.20355C9.23184 33.3158 15.1842 39.2682 22.6875 40.2965V40.4583C22.6875 41.3086 23.3789 42 24.2292 42H25.7708C26.6211 42 27.3125 41.3086 27.3125 40.4583V40.2965C34.8158 39.2682 40.7682 33.3158 41.7965 25.8125H41.9583C42.8086 25.8125 43.5 25.1211 43.5 24.2708V22.7292C43.5 21.8789 42.8086 21.1875 41.9583 21.1875ZM25 38.9167C16.4992 38.9167 9.58333 32.0007 9.58333 23.5C9.58333 14.9992 16.4992 8.08333 25 8.08333C33.5007 8.08333 40.4167 14.9992 40.4167 23.5C40.4167 32.0007 33.5007 38.9167 25 38.9167Z" fill="#0955A3"/>
<path d="M26.9617 25.4617L30.3958 23.5L26.9617 21.5382L25 18.1041L23.0382 21.5382L19.6041 23.5L23.0382 25.4617L25 28.8958L26.9617 25.4617Z" fill="#F96302"/>
</svg>
