<svg width="48" height="48" viewBox="0 0 48 48" fill="none" xmlns="http://www.w3.org/2000/svg">
<path d="M24.4999 16.9586H21.0833V25.5003H24.4999V16.9586Z" fill="#F96302"/>
<path d="M31.3333 16.9586H27.9166V25.5003H31.3333V16.9586Z" fill="#F96302"/>
<path d="M38.1665 22.0836L34.7499 25.5003V16.9586H38.1665V22.0836Z" fill="#F96302"/>
<path d="M42.4375 11.8333H16.8125C16.341 11.8333 15.9583 11.4498 15.9583 10.9792V10.125V7.5625C15.9583 6.14971 14.8086 5 13.3958 5H4V6.70833H4.08628C4.43222 8.40471 5.78775 9.73123 7.49523 10.0464C7.86167 12.0315 9.59821 13.5417 11.6875 13.5417H14.25V25.5H15.9583V13.3845C16.2265 13.4802 16.5118 13.5417 16.8125 13.5417H42.4375C42.909 13.5417 43.2917 13.9252 43.2917 14.3958V20.375C43.2917 21.0968 42.8509 22.2439 42.3683 22.782L36.9665 28.7843C36.5019 29.3002 35.4461 29.7708 34.75 29.7708H16.8125C15.3997 29.7708 14.25 30.9205 14.25 32.3333V34.1279C12.3034 34.5251 10.8333 36.2497 10.8333 38.3125C10.8333 40.6674 12.7492 42.5833 15.1042 42.5833C17.1661 42.5833 18.8915 41.1133 19.2887 39.1667H26.2946C26.6918 41.1133 28.4164 42.5833 30.4792 42.5833C32.8341 42.5833 34.75 40.6674 34.75 38.3125C34.75 35.9576 32.8341 34.0417 30.4792 34.0417C28.4172 34.0417 26.6918 35.5117 26.2946 37.4583H19.2887C18.9479 35.7876 17.6291 34.4687 15.9583 34.1279V32.3333C15.9583 31.8627 16.341 31.4792 16.8125 31.4792H34.75C35.9416 31.4792 37.4398 30.8112 38.2359 29.9263L43.6376 23.9241C44.4021 23.075 45 21.5162 45 20.375V14.3958C45 12.983 43.8503 11.8333 42.4375 11.8333ZM5.86552 6.70833H13.3958C13.8673 6.70833 14.25 7.09185 14.25 7.5625V8.41667H8.27083C7.15871 8.41667 6.21914 7.70002 5.86552 6.70833ZM11.6875 11.8333C10.5754 11.8333 9.63581 11.1167 9.28218 10.125H14.25V10.9792V11.8333H11.6875ZM30.4792 35.75C31.892 35.75 33.0417 36.8997 33.0417 38.3125C33.0417 39.7253 31.892 40.875 30.4792 40.875C29.0664 40.875 27.9167 39.7253 27.9167 38.3125C27.9167 36.8997 29.0664 35.75 30.4792 35.75ZM17.6667 38.3125C17.6667 39.7253 16.517 40.875 15.1042 40.875C13.6914 40.875 12.5417 39.7253 12.5417 38.3125C12.5417 36.8997 13.6914 35.75 15.1042 35.75C16.517 35.75 17.6667 36.8997 17.6667 38.3125Z" fill="#0955A3"/>
<path d="M30.4791 39.5938C31.1855 39.5938 31.7604 39.0189 31.7604 38.3125C31.7604 37.6061 31.1855 37.0312 30.4791 37.0312C29.7727 37.0312 29.1979 37.6061 29.1979 38.3125C29.1979 39.0189 29.7727 39.5938 30.4791 39.5938ZM30.4791 37.8854C30.714 37.8854 30.9062 38.0768 30.9062 38.3125C30.9062 38.5483 30.714 38.7396 30.4791 38.7396C30.2442 38.7396 30.052 38.5483 30.052 38.3125C30.052 38.0768 30.2442 37.8854 30.4791 37.8854Z" fill="#0955A3"/>
<path d="M13.8229 38.3125C13.8229 39.0189 14.3977 39.5938 15.1041 39.5938C15.8105 39.5938 16.3854 39.0189 16.3854 38.3125C16.3854 37.6061 15.8105 37.0312 15.1041 37.0312C14.3977 37.0312 13.8229 37.6061 13.8229 38.3125ZM15.5312 38.3125C15.5312 38.5483 15.339 38.7396 15.1041 38.7396C14.8692 38.7396 14.677 38.5483 14.677 38.3125C14.677 38.0768 14.8692 37.8854 15.1041 37.8854C15.339 37.8854 15.5312 38.0768 15.5312 38.3125Z" fill="#0955A3"/>
</svg>
